# xmcd
# 
# Track frame offsets:
#     150
#     15055
#     27498
#     39793
#     51738
#     66470
#     77798
#     90585
#     106215
#     118750
#     132485
#     143738
#     157158
#     170725
#     184875
#     200620
#     212960
#     228300
#     242705
#     252445
# 
# Disc length: 3563
# 
# Revision: 6
# Processed by: cddbd v1.5.2PL0 Copyright (c) Steve Scherf et al.
# Submitted via: BonkEnc v1.0.8
# 
DISCID=250de914
DTITLE=Orquestra Serenata Tropical - Convite Para Ouvir Boleros
DYEAR=1980
DGENRE=R&B
TTITLE0=Acercate Más
TTITLE1=El Reloj
TTITLE2=História De Un Amor
TTITLE3=Angelitos Negros
TTITLE4=Mi Ultimo Fracaso
TTITLE5=Nuestro Juramento
TTITLE6=La Barca
TTITLE7=Siete Notas De Amor
TTITLE8=Perfume De Gardenia
TTITLE9=Amor
TTITLE10=Aquellos Ojos Verdes
TTITLE11=Sin Un Amor
TTITLE12=Hipocrita
TTITLE13=Amorcito Corazón
TTITLE14=No Me Quieras Tanto
TTITLE15=Esperame En El Cielo
TTITLE16=Quiereme Mucho
TTITLE17=Un Siglo De Ausencia
TTITLE18=Tu Me Acostumbraste
TTITLE19=Sabor A Mi
EXTD=YEAR: 1980
EXTT0=
EXTT1=
EXTT2=
EXTT3=
EXTT4=
EXTT5=
EXTT6=
EXTT7=
EXTT8=
EXTT9=
EXTT10=
EXTT11=
EXTT12=
EXTT13=
EXTT14=
EXTT15=
EXTT16=
EXTT17=
EXTT18=
EXTT19=
PLAYORDER=
